<!-- icon666.com - MILLIONS vector ICONS FREE --><svg id="photos" enable-background="new 0 0 128 128" viewBox="0 0 128 128" xmlns="http://www.w3.org/2000/svg"><path id="photos_1_" d="m116.924 38.5h-7.5v-7.5c0-1.93-1.57-3.5-3.5-3.5h-7.5v-7.5c0-1.93-1.57-3.5-3.5-3.5h-83c-1.93 0-3.5 1.57-3.5 3.5v66c0 1.93 1.57 3.5 3.5 3.5h7.5v7.5c0 1.93 1.57 3.5 3.5 3.5h7.5v7.5c0 1.93 1.57 3.5 3.5 3.5h83c1.93 0 3.5-1.57 3.5-3.5v-66c0-1.93-1.57-3.5-3.5-3.5zm0 3c.275 0 .5.224.5.5v54.078l-24.84-21.829c-.379-.334-.948-.333-1.324.004l-8.296 7.373-18.333-18.333c-.19-.19-.45-.289-.719-.293-.27.003-.526.115-.712.311l-29.776 31.263v-52.574c0-.276.224-.5.5-.5zm-97.5-10.5v55.5h-7.5c-.276 0-.5-.225-.5-.5v-66c0-.276.224-.5.5-.5h83c.275 0 .5.224.5.5v7.5h-72.5c-1.93 0-3.5 1.57-3.5 3.5zm11 66.5h-7.5c-.276 0-.5-.225-.5-.5v-66c0-.276.224-.5.5-.5h83c.275 0 .5.224.5.5v7.5h-72.5c-1.93 0-3.5 1.57-3.5 3.5zm86.5 11h-83c-.276 0-.5-.225-.5-.5v-10.526l30.518-32.042 18.275 18.275c.373.373.977.391 1.371.04l8.34-7.412 25.496 22.406v9.259c0 .275-.225.5-.5.5zm-20-42.5c4.963 0 9-4.038 9-9s-4.037-9-9-9-9 4.038-9 9 4.037 9 9 9zm0-16c3.859 0 7 3.14 7 7s-3.141 7-7 7-7-3.14-7-7 3.14-7 7-7z" fill="rgb(0,0,0)" style="fill: rgb(245, 71, 155);"></path></svg>